<?xml version="1.0" encoding="UTF-8" standalone="no"?><!DOCTYPE svg PUBLIC "-//W3C//DTD SVG 1.1//EN" "http://www.w3.org/Graphics/SVG/1.1/DTD/svg11.dtd"><svg width="100%" height="100%" viewBox="0 0 388 388" version="1.1" xmlns="http://www.w3.org/2000/svg" xmlns:xlink="http://www.w3.org/1999/xlink" xml:space="preserve" xmlns:serif="http://www.serif.com/" style="fill-rule:evenodd;clip-rule:evenodd;stroke-linejoin:round;stroke-miterlimit:2;"><path d="M182.1,64.824c-0,10.553 8.611,19.102 19.227,19.102c10.622,0 19.234,-8.549 19.234,-19.102c-0,-10.553 -8.612,-19.102 -19.234,-19.102c-10.616,-0 -19.227,8.549 -19.227,19.102Zm122.289,-18.63c12.296,8.505 13.557,26.112 2.71,36.386l-95.687,90.659c-9.173,8.692 -23.605,8.698 -32.784,0.013l-97.074,-91.882c-10.384,-9.827 -9.648,-26.447 1.449,-35.48c89.848,-73.158 180.502,-27.968 221.386,0.304Zm-272.636,161.186c6.126,79.572 70.521,143.163 150.784,148.629l-0,-53.509c-50.632,-5.175 -91.022,-44.998 -96.824,-95.12l-53.96,-0Zm323.992,-0l-53.96,-0c-5.702,49.272 -44.849,88.494 -94.27,94.729l0,53.708c79.077,-6.626 142.173,-69.708 148.23,-148.437Zm-296.234,-121.233c4.352,4.157 5.033,10.851 1.542,15.746c-16.492,23.153 -26.996,50.786 -29.3,80.671l53.96,-0c1.599,-13.792 5.839,-26.777 12.184,-38.484c3.884,-7.165 13.626,-8.636 19.558,-3.027c4.096,3.883 4.927,9.957 2.279,14.933c-4.346,8.152 -7.35,17.11 -8.78,26.578l33.378,-0c6.894,-0 12.489,5.552 12.489,12.408c0,6.855 -5.595,12.408 -12.489,12.408l-33.378,-0c5.508,36.405 34.758,65.117 71.583,70.043l-0,-36.703c-0,-6.855 5.589,-12.408 12.489,-12.408c6.894,0 12.489,5.553 12.489,12.408l0,36.318c35.62,-5.887 63.646,-34.097 69.035,-69.658l-34.37,-0c-6.901,-0 -12.49,-5.553 -12.49,-12.408c0,-6.856 5.589,-12.408 12.49,-12.408l34.37,-0c-1.361,-8.984 -4.134,-17.502 -8.13,-25.313c-2.504,-4.895 -1.555,-10.813 2.448,-14.604c5.988,-5.67 15.88,-4.15 19.67,3.164c5.833,11.248 9.729,23.637 11.247,36.753l53.96,-0c-2.248,-29.258 -12.371,-56.345 -28.27,-79.188c-3.478,-4.994 -2.753,-11.744 1.674,-15.932c5.526,-5.242 14.531,-4.417 18.878,1.824c22.187,31.851 34.664,70.856 33.09,112.776c-3.547,94.593 -79.975,172.745 -175.063,178.812c-108.932,6.955 -199.804,-79.119 -199.804,-185.884c0,-39.966 12.739,-77.029 34.389,-107.404c4.347,-6.092 13.189,-6.855 18.603,-1.675l0.269,0.254Z"/><path d="M63.757,81.803c-0.034,-0.189 -0.102,-0.339 -0.209,-0.44c-0,-0 -0.005,-0.005 -0.005,-0.005c-8.155,-7.78 -21.452,-6.587 -27.992,2.58c-0,0.001 -0.001,0.002 -0.001,0.002c-22.382,31.401 -35.55,69.716 -35.55,111.032c0,110.331 93.882,199.308 206.452,192.122c98.272,-6.271 177.245,-87.055 180.911,-184.815c1.626,-43.336 -11.272,-83.657 -34.208,-116.583c-6.517,-9.359 -20.014,-10.649 -28.303,-2.79c-6.679,6.319 -7.754,16.506 -2.505,24.042c14.051,20.188 23.409,43.827 26.501,69.366c-0,-0 -41.634,-0 -41.634,-0c-1.968,-11.842 -5.778,-23.064 -11.127,-33.379c-5.69,-10.98 -20.527,-13.339 -29.517,-4.826c0,-0 0,0 0,0c-6.028,5.709 -7.486,14.617 -3.715,21.989c0.001,0 0.001,0 0.001,0c2.612,5.105 4.657,10.537 6.077,16.216c-0.001,-0 -26.753,-0 -26.753,-0c-10.365,-0 -18.74,8.361 -18.74,18.658c0,10.297 8.375,18.658 18.74,18.658c-0,-0 26.745,-0 26.745,-0c-6.818,27.079 -28.071,48.482 -55.16,55.68c0,-0.001 0,-28.59 0,-28.59c0,-10.297 -8.384,-18.658 -18.739,-18.658c-10.365,0 -18.739,8.361 -18.739,18.658l-0,29.226c-28.301,-6.497 -50.685,-28.391 -57.71,-56.317c0,0.001 25.755,0.001 25.755,0.001c10.355,-0 18.739,-8.361 18.739,-18.658c0,-10.297 -8.384,-18.658 -18.739,-18.658c-0,-0 -25.763,-0 -25.763,-0c1.526,-6.115 3.779,-11.946 6.68,-17.388c0.001,-0.001 0.002,-0.003 0.003,-0.004c3.974,-7.469 2.652,-16.575 -3.497,-22.405c-0.002,-0.002 -0.004,-0.004 -0.006,-0.006c-8.904,-8.417 -23.517,-6.164 -29.347,4.591c-0,0 -0,0 -0,0c-5.863,10.817 -10.027,22.666 -12.117,35.212c0.001,-0 -41.633,-0 -41.633,-0c3.17,-26.137 12.888,-50.293 27.492,-70.795c5.295,-7.425 4.288,-17.584 -2.317,-23.892l-0.07,0.176Zm-4.246,4.344c4.352,4.157 5.033,10.851 1.542,15.746c-16.492,23.153 -26.996,50.786 -29.3,80.671l53.96,-0c1.599,-13.792 5.839,-26.777 12.184,-38.484c3.884,-7.165 13.626,-8.636 19.558,-3.027c4.096,3.883 4.927,9.957 2.279,14.933c-4.346,8.152 -7.35,17.11 -8.78,26.578l33.378,-0c6.894,-0 12.489,5.552 12.489,12.408c0,6.855 -5.595,12.408 -12.489,12.408l-33.378,-0c5.508,36.405 34.758,65.117 71.583,70.043l-0,-36.703c-0,-6.855 5.589,-12.408 12.489,-12.408c6.894,0 12.489,5.553 12.489,12.408l0,36.318c35.62,-5.887 63.646,-34.097 69.035,-69.658l-34.37,-0c-6.901,-0 -12.49,-5.553 -12.49,-12.408c0,-6.856 5.589,-12.408 12.49,-12.408l34.37,-0c-1.361,-8.984 -4.134,-17.502 -8.13,-25.313c-2.504,-4.895 -1.555,-10.813 2.448,-14.604c5.988,-5.67 15.88,-4.15 19.67,3.164c5.833,11.248 9.729,23.637 11.247,36.753l53.96,-0c-2.248,-29.258 -12.371,-56.345 -28.27,-79.188c-3.478,-4.994 -2.753,-11.744 1.674,-15.932c5.526,-5.242 14.531,-4.417 18.878,1.824c22.187,31.851 34.664,70.856 33.09,112.776c-3.547,94.593 -79.975,172.745 -175.063,178.812c-108.932,6.955 -199.804,-79.119 -199.804,-185.884c0,-39.966 12.739,-77.029 34.389,-107.404c4.347,-6.092 13.189,-6.855 18.603,-1.675l0.269,0.254Zm-27.758,121.233c6.126,79.572 70.521,143.163 150.784,148.629l-0,-53.509c-50.632,-5.175 -91.022,-44.998 -96.824,-95.12l-53.96,-0Zm323.992,-0l-53.96,-0c-5.702,49.272 -44.849,88.494 -94.27,94.729l0,53.708c79.077,-6.626 142.173,-69.708 148.23,-148.437Zm-317.094,6.25l41.632,-0c8.059,48.551 46.953,86.916 96.004,94.374c-0,-0 -0,41.172 -0,41.172c-71.784,-7.966 -129.011,-64.41 -137.636,-135.546l0,-0Zm310.196,-0c-8.518,70.292 -64.493,126.238 -135.082,135.243c0,0 0,-41.387 0,-41.387c47.835,-8.379 85.533,-46.161 93.45,-93.857l41.632,0.001Zm-40.902,-172.577c-0.001,0 -0.001,0 -0.001,-0c-42.269,-29.23 -135.994,-75.646 -228.887,-0.01c-14.032,11.422 -14.93,32.44 -1.798,44.867l97.073,91.881c11.586,10.963 29.801,10.955 41.379,-0.015c-0,0 95.687,-90.659 95.687,-90.659c13.731,-13.006 12.113,-35.295 -3.453,-46.064Zm-3.556,5.141c12.296,8.505 13.557,26.112 2.71,36.386l-95.687,90.659c-9.173,8.692 -23.605,8.698 -32.784,0.013l-97.074,-91.882c-10.384,-9.827 -9.648,-26.447 1.449,-35.48c89.848,-73.158 180.502,-27.968 221.386,0.304Zm-122.289,18.63c-0,10.553 8.611,19.102 19.227,19.102c10.622,0 19.234,-8.549 19.234,-19.102c-0,-10.553 -8.612,-19.102 -19.234,-19.102c-10.616,-0 -19.227,8.549 -19.227,19.102Zm6.25,0c-0,-7.111 5.823,-12.852 12.977,-12.852c7.159,-0 12.984,5.74 12.984,12.852c-0,7.112 -5.825,12.852 -12.984,12.852c-7.154,0 -12.977,-5.74 -12.977,-12.852Z" style="fill:url(#_Linear1);"/><defs><linearGradient id="_Linear1" x1="0" y1="0" x2="1" y2="0" gradientUnits="userSpaceOnUse" gradientTransform="matrix(375,0,0,375,6.25,193.75)"><stop offset="0" style="stop-color:#5030c7;stop-opacity:1"/><stop offset="0.29" style="stop-color:#7b1ddc;stop-opacity:1"/><stop offset="0.67" style="stop-color:#ff1361;stop-opacity:1"/><stop offset="0.88" style="stop-color:#ff3652;stop-opacity:1"/><stop offset="0.95" style="stop-color:#ff902c;stop-opacity:1"/><stop offset="1" style="stop-color:#fff800;stop-opacity:1"/></linearGradient></defs></svg>