<?xml version="1.0" standalone="no"?>
<!DOCTYPE svg PUBLIC "-//W3C//DTD SVG 20010904//EN"
 "http://www.w3.org/TR/2001/REC-SVG-20010904/DTD/svg10.dtd">
<svg version="1.0" xmlns="http://www.w3.org/2000/svg"
 width="551.000000pt" height="551.000000pt" viewBox="0 0 551.000000 551.000000"
 preserveAspectRatio="xMidYMid meet">
<metadata>
Created by potrace 1.11, written by Peter Selinger 2001-2013
</metadata>
<g transform="translate(0.000000,551.000000) scale(0.100000,-0.100000)"
fill="#000000" stroke="none">
<path d="M2610 5309 c-220 -23 -473 -87 -707 -180 -233 -92 -594 -294 -697
-388 -96 -89 -125 -245 -67 -366 26 -55 88 -117 715 -710 377 -357 705 -660
728 -672 97 -52 211 -54 305 -5 37 19 250 215 745 684 381 362 700 668 709
681 48 66 62 188 33 274 -26 76 -68 125 -182 211 -489 367 -1025 527 -1582
471z m135 -546 c72 -24 139 -95 161 -168 30 -106 2 -200 -82 -274 -52 -46
-103 -63 -182 -62 -218 2 -332 269 -184 433 74 82 180 108 287 71z"/>
<path d="M4665 4268 c-52 -19 -87 -50 -107 -96 -30 -67 -19 -109 56 -224 67
-101 169 -294 206 -388 68 -172 130 -417 146 -577 l7 -73 -370 0 -370 0 -6 53
c-15 125 -84 332 -150 452 -23 41 -46 67 -73 82 -83 48 -189 17 -231 -67 -31
-61 -29 -88 16 -194 53 -123 100 -273 101 -318 0 -5 -109 -8 -243 -8 -232 0
-245 -1 -287 -22 -73 -38 -107 -108 -90 -185 12 -51 39 -84 90 -110 42 -22 55
-23 287 -23 134 0 243 -4 243 -8 0 -18 -42 -170 -60 -220 -141 -377 -482 -656
-887 -726 l-33 -5 0 266 c0 250 -1 269 -21 310 -59 122 -239 122 -298 0 -20
-41 -21 -60 -21 -305 0 -250 -1 -262 -19 -262 -42 0 -202 54 -297 100 -302
147 -526 421 -608 746 -29 113 -54 102 242 106 221 3 261 5 289 20 107 59 110
225 6 289 -37 23 -45 24 -295 27 -251 3 -258 4 -258 23 0 42 42 182 80 270 64
143 51 222 -45 276 -71 40 -149 28 -207 -34 -53 -55 -132 -270 -164 -442 l-17
-91 -363 0 c-199 0 -365 3 -367 8 -7 12 21 201 44 302 58 253 143 461 278 678
86 138 97 171 81 232 -33 124 -195 166 -284 74 -87 -89 -267 -439 -339 -659
-93 -280 -128 -501 -128 -805 0 -291 29 -485 112 -755 175 -568 586 -1094
1106 -1412 415 -254 847 -376 1338 -376 455 -1 877 109 1268 331 594 336 1033
904 1208 1560 110 410 114 854 13 1257 -65 260 -195 559 -331 765 -78 117
-102 142 -152 159 -40 13 -56 13 -96 -1z m-3367 -1805 c27 -136 62 -243 118
-359 206 -425 629 -746 1075 -816 l79 -12 0 -369 0 -368 -52 7 c-522 61 -971
277 -1333 639 -321 320 -530 714 -610 1150 -20 110 -30 196 -26 228 1 4 164 7
364 7 l364 0 21 -107z m3668 35 c-11 -111 -43 -265 -81 -391 -102 -338 -273
-627 -523 -889 -368 -383 -859 -623 -1379 -674 l-73 -7 0 366 0 365 43 7 c185
28 314 68 472 146 249 123 480 341 625 589 81 138 160 364 176 503 l7 57 370
0 370 0 -7 -72z"/>
</g>
</svg>
